<?xml version="1.0" encoding="utf-8"?>
<!-- Generator: Adobe Illustrator 23.0.3, SVG Export Plug-In . SVG Version: 6.00 Build 0)  -->
<svg version="1.1" id="mah-Wechloy" xmlns="http://www.w3.org/2000/svg" xmlns:xlink="http://www.w3.org/1999/xlink" x="0px"
	 y="0px" viewBox="0 0 212.74 34.82" style="enable-background:new 0 0 212.74 34.82;" xml:space="preserve">
<style type="text/css">
	.st0{fill:#000000;}
</style>
<g>
	<path class="st0" d="M130.02,8.8c-2.99-4.54-8.37-6.99-13.38-7.91c-5.17-0.95-10.75-0.46-15.66,1.43
		C96.1,4.19,91.54,7.6,89.19,12.5c-2.4,5.02-1.88,10.62,1.72,14.95c6.87,8.28,20.91,8.21,29.59,4.1c0.23-0.11,0.57-0.42,0.31-0.68
		c-0.15-0.15-0.29-0.12-0.46-0.08c-0.64,0.11-1.25,0.31-1.88,0.46c-2.86,0.65-5.69,1.01-8.64,0.93c-3.92-0.11-8.02-1.05-11.28-3.48
		c-3.3-2.46-5.24-6.17-4.84-10.37c0.38-4.11,2.87-7.59,6-9.99c6.11-4.7,15.69-6.07,22.67-2.28c3.5,1.9,6.31,5.21,6.55,9.42
		c0.24,4.15-2.18,7.93-6.07,9.42c-0.7,0.26-2.03,0.67-2.83,0.31c-0.54-0.24-0.58-0.74-0.5-1.24c0.08-0.48,0.24-0.94,0.39-1.4
		l3.69-11.3h-5.48c-0.13,0.34-0.25,0.68-0.38,1.02c-5.4-3.98-12.58-0.01-13.94,6.15c-0.63,2.85,0.05,6.28,2.62,8.11
		c2.73,1.95,5.98,0.98,8.44-0.6c1.85,2.09,4.61,2.44,7.13,1.86c2.65-0.61,5.09-2.24,6.84-4.26C132.55,19.3,133.17,13.58,130.02,8.8z
		 M115.86,16.84c-0.25,1.17-0.65,2.28-1.09,3.39c-0.44,1.11-0.89,2.19-1.53,3.21c-0.56,0.9-1.57,2.15-2.84,1.56
		c-1.21-0.56-1.14-2.17-1.03-3.18c0.14-1.2,0.46-2.32,0.9-3.44c0.44-1.12,0.95-2.16,1.71-3.11c0.64-0.8,1.77-1.87,3.01-1.53
		C116.35,14.12,116.07,15.88,115.86,16.84z"/>
	<rect x="62.5" y="13.36" class="st0" width="3.42" height="13.77"/>
	<polygon class="st0" points="136.57,27.15 136.57,7.56 139.94,7.56 139.94,15.84 146.89,15.84 146.89,7.56 150.25,7.56 
		150.25,27.15 146.89,27.15 146.89,18.84 139.94,18.84 139.94,27.15 	"/>
	<path class="st0" d="M62.5,9.85c0,0.79,0.43,1.21,1.22,1.21h0.98c0.79,0,1.22-0.41,1.22-1.21V8.73c0-0.78-0.43-1.18-1.22-1.18
		h-0.98c-0.79,0-1.22,0.6-1.22,1.18V9.85z"/>
	<path class="st0" d="M19.37,7.55c1.14,0,2.21-0.11,3.28,0.57c1,0.63,1.44,1.79,1.44,2.9v16.12h-3.37V11.46
		c0-1.08-1.13-0.96-1.86-0.96h-3.23c-0.73,0-1.86-0.12-1.86,0.96v15.67H10.4V11.46c0-1.07-1.13-0.96-1.86-0.96H5.31
		c-0.73,0-1.86-0.12-1.86,0.96v15.67H0.08V11.01c0-1.11,0.44-2.27,1.44-2.9C2.59,7.44,3.66,7.55,4.8,7.55h4.25
		c0.59,0,1.15,0,1.72,0.23c0.27,0.11,0.52,0.26,0.75,0.44c0.11,0.08,0.57,0.46,0.57,0.64c0-0.19,0.46-0.56,0.57-0.64
		c0.23-0.18,0.48-0.32,0.75-0.44c0.57-0.23,1.13-0.23,1.72-0.23H19.37z"/>
	<path class="st0" d="M190.63,7.55c1.14,0,2.21-0.11,3.28,0.57c1,0.63,1.44,1.79,1.44,2.9v16.12h-3.37V11.46
		c0-1.08-1.13-0.96-1.86-0.96h-3.23c-0.73,0-1.86-0.12-1.86,0.96v15.67h-3.38V11.46c0-1.07-1.13-0.96-1.86-0.96h-3.23
		c-0.73,0-1.86-0.12-1.86,0.96v15.67h-3.37V11.01c0-1.11,0.44-2.27,1.44-2.9c1.08-0.68,2.14-0.57,3.28-0.57h4.25
		c0.59,0,1.15,0,1.71,0.23c0.27,0.11,0.52,0.26,0.75,0.44c0.11,0.08,0.57,0.46,0.57,0.64c0-0.19,0.45-0.56,0.57-0.64
		c0.23-0.18,0.48-0.32,0.75-0.44c0.57-0.23,1.13-0.23,1.72-0.23H190.63z"/>
	<path class="st0" d="M36.74,18.55c2.5,0,4.69-0.03,4.69-3.21V11c0-3.33-2.01-3.45-4.72-3.45h-4.22c-1.14,0-2.21-0.11-3.28,0.57
		c-1,0.63-1.44,1.79-1.44,2.9l0-0.02v12.69c0,3.32,2.01,3.45,4.72,3.45h4.25c2.7,0,4.69-0.13,4.69-3.44v-1.95h-3.37v1.5
		c0,1.05-1.13,0.93-1.83,0.93h-3.26c-0.71,0-1.84,0.12-1.84-0.94v-4.69H36.74z M31.13,11.44c0-1.07,1.1-0.97,1.84-0.97h3.26
		c0.73,0,1.83-0.11,1.83,0.97v3.41c0,1.07-1.1,0.97-1.83,0.97h-5.1V11.44z"/>
	<path class="st0" d="M54.36,7.55h-9.23v19.58h9c2.7,0,4.69-0.13,4.69-3.44V10.99C58.82,7.75,57.09,7.55,54.36,7.55z M55.45,23.24
		c0,1.06-1.15,0.94-1.86,0.94h-5.09v-13.7c0.42,0,5.09,0,5.09,0c0.73,0,1.86-0.12,1.86,0.97V23.24z"/>
	<path class="st0" d="M78.49,7.55h-4.25c-2.8,0-4.69,0.89-4.69,3.44v1.95h3.37v-1.51c0-0.36,0.1-0.6,0.29-0.73
		c0.15-0.1,0.55-0.22,1.54-0.22h3.26c0.99,0,1.38,0.12,1.54,0.23c0.2,0.13,0.29,0.38,0.29,0.74l0,4.69h-5.6
		c-2.05,0-3.3,0.17-3.84,0.5c-0.57,0.36-0.85,1.25-0.85,2.71v4.34c0,3.32,1.97,3.45,4.69,3.45h4.25c2.71,0,4.72-0.12,4.72-3.45V11
		C83.21,7.67,81.2,7.55,78.49,7.55z M80.07,23.24c0,1.26-1.17,1.17-2.06,1.17h-3.26c-0.89,0-2.07,0.09-2.07-1.17V19.8
		c0-1.28,1.15-1.2,2.07-1.2h5.32V23.24z"/>
	<path class="st0" d="M208,18.55c2.5,0,4.69-0.03,4.69-3.21V11c0-3.33-2.01-3.45-4.72-3.45h-4.22c-1.14,0-2.21-0.11-3.28,0.57
		c-1,0.63-1.44,1.79-1.44,2.9l0-0.02v12.69c0,3.32,2.01,3.45,4.72,3.45H208c2.7,0,4.69-0.13,4.69-3.44v-1.95h-3.37v1.5
		c0,1.05-1.13,0.93-1.83,0.93h-3.26c-0.71,0-1.84,0.12-1.84-0.94v-4.69H208z M202.39,11.44c0-1.07,1.11-0.97,1.84-0.97h3.26
		c0.73,0,1.83-0.11,1.83,0.97v3.41c0,1.07-1.1,0.97-1.83,0.97h-5.1V11.44z"/>
	<path class="st0" d="M162.92,7.56h-4.25c-2.71,0-4.71,0.13-4.71,3.45V23.7c0,3.32,2,3.45,4.71,3.45h4.25
		c2.71,0,4.72-0.12,4.72-3.45V11.01C167.64,7.68,165.63,7.56,162.92,7.56z M164.27,23.25c0,1.06-1.15,0.94-1.86,0.94h-3.23
		c-0.71,0-1.86,0.13-1.86-0.94v-11.8c0-1.08,1.13-0.96,1.86-0.96h3.23c0.73,0,1.86-0.12,1.86,0.96V23.25z"/>
</g>
</svg>
